<svg xmlns="http://www.w3.org/2000/svg" viewBox="0 0 96 54" preserveAspectRatio="none">
  <g fill="#96b478">
    <rect x="4" y="7" width="7" height="2" rx="1" opacity=".72"/>
    <rect x="14" y="6" width="4" height="2" rx="1" opacity=".58"/>
    <rect x="21" y="9" width="6" height="2" rx="1" opacity=".82"/>
    <rect x="34" y="5" width="5" height="2" rx="1" opacity=".68"/>
    <rect x="42" y="8" width="8" height="2" rx="1" opacity=".76"/>
    <rect x="55" y="6" width="5" height="2" rx="1" opacity=".54"/>
    <rect x="64" y="9" width="7" height="2" rx="1" opacity=".74"/>
    <rect x="78" y="7" width="6" height="2" rx="1" opacity=".61"/>

    <rect x="8" y="15" width="4" height="2" rx="1" opacity=".63"/>
    <rect x="17" y="18" width="7" height="2" rx="1" opacity=".79"/>
    <rect x="28" y="14" width="5" height="2" rx="1" opacity=".57"/>
    <rect x="37" y="17" width="6" height="2" rx="1" opacity=".73"/>
    <rect x="47" y="13" width="4" height="2" rx="1" opacity=".51"/>
    <rect x="58" y="18" width="8" height="2" rx="1" opacity=".83"/>
    <rect x="72" y="15" width="5" height="2" rx="1" opacity=".59"/>
    <rect x="82" y="18" width="4" height="2" rx="1" opacity=".55"/>

    <rect x="5" y="25" width="6" height="2" rx="1" opacity=".77"/>
    <rect x="18" y="24" width="4" height="2" rx="1" opacity=".56"/>
    <rect x="26" y="27" width="7" height="2" rx="1" opacity=".8"/>
    <rect x="39" y="23" width="5" height="2" rx="1" opacity=".65"/>
    <rect x="49" y="26" width="7" height="2" rx="1" opacity=".78"/>
    <rect x="61" y="24" width="4" height="2" rx="1" opacity=".52"/>
    <rect x="69" y="28" width="8" height="2" rx="1" opacity=".72"/>
    <rect x="83" y="25" width="5" height="2" rx="1" opacity=".6"/>

    <rect x="11" y="34" width="5" height="2" rx="1" opacity=".54"/>
    <rect x="20" y="37" width="8" height="2" rx="1" opacity=".84"/>
    <rect x="33" y="33" width="5" height="2" rx="1" opacity=".62"/>
    <rect x="44" y="36" width="7" height="2" rx="1" opacity=".79"/>
    <rect x="56" y="34" width="4" height="2" rx="1" opacity=".5"/>
    <rect x="65" y="38" width="6" height="2" rx="1" opacity=".68"/>
    <rect x="76" y="35" width="5" height="2" rx="1" opacity=".58"/>

    <rect x="7" y="44" width="7" height="2" rx="1" opacity=".75"/>
    <rect x="22" y="46" width="5" height="2" rx="1" opacity=".6"/>
    <rect x="31" y="43" width="6" height="2" rx="1" opacity=".71"/>
    <rect x="43" y="47" width="8" height="2" rx="1" opacity=".82"/>
    <rect x="58" y="44" width="5" height="2" rx="1" opacity=".55"/>
    <rect x="67" y="46" width="7" height="2" rx="1" opacity=".76"/>
    <rect x="80" y="43" width="4" height="2" rx="1" opacity=".57"/>
  </g>
</svg>
